<svg xmlns="http://www.w3.org/2000/svg" width="320" height="428" viewBox="0 0 320 428" version="1.1"><path d="M 151.500 7.712 C 137.401 13.382, 129.672 24.757, 129.561 40 C 129.509 47.190, 129.905 49.348, 132.125 54 C 135.994 62.105, 141.147 67.455, 148.637 71.142 C 162.005 77.723, 177.665 74.618, 187.971 63.341 C 194.865 55.798, 197.314 48.870, 196.785 38.408 C 196.103 24.940, 189.332 14.669, 177.357 8.939 C 172.121 6.434, 170.055 6.008, 163.357 6.052 C 158.576 6.083, 153.934 6.733, 151.500 7.712 M 40 36.121 C 36.806 37.391, 32.225 41.728, 30.411 45.200 C 28.595 48.676, 28.596 57.326, 30.412 60.800 C 32.117 64.062, 42.960 74.625, 78.228 107.383 C 94.625 122.612, 106.097 134.062, 107.907 137.003 C 109.530 139.640, 111.784 144.799, 112.917 148.466 C 114.939 155.012, 114.977 157.027, 115.018 258.098 L 115.060 361.061 118.386 364.780 C 123.578 370.588, 124 372.028, 124 383.934 C 124 394.333, 123.880 395, 122 395 C 120.122 395, 120 394.333, 120 384.047 C 120 372.174, 119.282 369.558, 115.182 366.500 C 112.825 364.742, 110.635 364.461, 97.107 364.178 C 88.641 364, 80.688 364.113, 79.434 364.427 C 78.180 364.742, 75.770 366.384, 74.077 368.077 L 71 371.154 70.985 384.827 C 70.970 398.287, 70.306 401.925, 68.112 400.569 C 67.411 400.136, 67 396.023, 67 389.441 L 67 379 54.900 379 L 42.800 379 39.400 382.400 L 36 385.800 36 396.861 L 36 407.923 31.750 409.037 C 22.363 411.498, 16.871 413.204, 17.218 413.552 C 17.420 413.753, 20.060 413.272, 23.084 412.482 C 41.566 407.656, 85.101 401.048, 111.500 399.061 C 145.271 396.520, 197.727 396.949, 228 400.014 C 251.189 402.362, 284.633 407.876, 301.366 412.111 C 305.692 413.206, 309.425 413.909, 309.661 413.673 C 309.897 413.437, 306.357 412.276, 301.795 411.094 C 297.233 409.911, 292.825 408.572, 292 408.117 C 290.855 407.487, 290.382 404.630, 290 396.060 C 289.503 384.892, 289.481 384.812, 286.234 381.914 C 283.034 379.058, 282.741 379, 271.620 379 L 260.272 379 259.636 383.640 C 259.286 386.191, 259 391.179, 259 394.723 C 259 399.432, 258.663 401.055, 257.750 400.753 C 256.865 400.460, 256.346 396.278, 255.973 386.420 C 255.398 371.241, 254.715 369.017, 249.686 365.950 C 246.893 364.247, 244.588 364.007, 231 364.007 C 217.412 364.007, 215.107 364.247, 212.314 365.950 C 206.960 369.215, 206.300 371.579, 206.086 388.250 C 206.019 393.545, 205.677 395, 204.500 395 C 203.370 395, 202.976 393.706, 202.901 389.750 C 202.846 386.863, 202.771 383.150, 202.735 381.500 C 202.522 371.926, 202.952 370.336, 207 365.737 L 211 361.193 211 258.807 C 211 146.206, 210.761 150.856, 217.154 138.862 C 219.678 134.126, 225.042 128.604, 246.372 108.781 C 298.164 60.648, 297.395 61.488, 297.373 53.068 C 297.347 43.529, 290.938 36.085, 282.012 35.227 C 279.315 34.968, 276.019 35.029, 274.687 35.364 C 273.355 35.698, 267.584 39.916, 261.864 44.736 C 224.634 76.107, 190.163 95.163, 166.181 97.629 C 145.320 99.775, 104.247 78.604, 65.153 45.556 C 60.563 41.675, 55.613 37.715, 54.153 36.755 C 51.230 34.833, 44.049 34.511, 40 36.121 M 157.003 318.280 C 155.080 318.913, 151.593 321.400, 149.253 323.807 C 145.063 328.119, 145 328.288, 145 335.254 C 145 344.789, 147.827 349.819, 154.895 352.860 C 160.967 355.472, 165.242 355.539, 170.500 353.104 C 182.939 347.345, 185.824 333.259, 176.633 323.155 C 172.202 318.283, 163.532 316.130, 157.003 318.280 M 155.299 323.960 C 146.116 329.558, 147.110 344.181, 157.020 349.297 C 163.504 352.644, 172.635 349.529, 176.095 342.790 C 179.413 336.328, 177.919 329.634, 172.059 324.703 C 167.994 321.282, 160.252 320.939, 155.299 323.960 M 90.500 329.533 C 85.131 332.197, 82.332 338.116, 82.849 345.715 C 83.080 349.100, 88.693 354.840, 92.873 355.966 C 100.960 358.143, 108.712 352.873, 110.055 344.285 C 111.836 332.895, 100.684 324.482, 90.500 329.533 M 220.592 332.355 C 216.474 336.473, 216 337.420, 216 341.523 C 216 350.227, 221.639 356.333, 229.677 356.333 C 234.660 356.333, 238.246 354.158, 241.750 349.010 C 247.557 340.478, 241.222 329.304, 229.964 328.223 C 225.379 327.782, 224.996 327.951, 220.592 332.355 M 54.378 351.398 C 50.205 353.266, 48 356.646, 48 361.175 C 48 366.130, 49.562 369.310, 52.990 371.335 C 57.450 373.970, 62.385 373.479, 66.339 370.007 C 70.567 366.295, 71.580 362.024, 69.347 357.318 C 66.512 351.345, 60.132 348.822, 54.378 351.398 M 262.198 351.633 C 258.243 353.630, 256 357.581, 256 362.550 C 256 365.368, 256.775 366.975, 259.400 369.600 C 262.258 372.458, 263.516 373, 267.294 373 C 275.651 373, 281.279 364.307, 277.568 357.131 C 274.501 351.201, 267.800 348.804, 262.198 351.633 M 147.500 356.937 C 142.400 357.797, 139.966 359.378, 136.933 363.799 C 134.694 367.061, 134.474 368.448, 134.174 381.172 C 133.858 394.606, 133.908 395, 135.924 395 C 137.911 395, 138 394.480, 138 382.886 C 138 372.385, 138.283 370.269, 140.126 366.989 C 141.296 364.908, 143.296 362.731, 144.571 362.150 C 145.846 361.569, 154.270 361.006, 163.290 360.899 C 187.037 360.617, 187.978 361.398, 188.598 381.903 C 188.804 388.724, 189.184 394.517, 189.443 394.776 C 189.702 395.035, 190.671 394.957, 191.596 394.602 C 193.097 394.025, 193.217 392.512, 192.707 380.539 C 192.393 373.160, 191.697 366.308, 191.160 365.311 C 189.904 362.980, 186.162 359.592, 183.092 358.005 C 180.396 356.611, 154.104 355.822, 147.500 356.937" stroke="none" fill="#115860" fill-rule="evenodd"/></svg>